<svg width="173" height="173" viewBox="0 0 173 173" fill="none" xmlns="http://www.w3.org/2000/svg">
<g clip-path="url(#clip0_2790_668)">
<path d="M144.167 0H28.8333C12.9091 0 0 12.9091 0 28.8333V144.167C0 160.091 12.9091 173 28.8333 173H144.167C160.091 173 173 160.091 173 144.167V28.8333C173 12.9091 160.091 0 144.167 0Z" fill="#F5F5F5"/>
<mask id="mask0_2790_668" style="mask-type:luminance" maskUnits="userSpaceOnUse" x="30" y="28" width="113" height="117">
<path d="M142.609 28.8334H30.391V144.167H142.609V28.8334Z" fill="white"/>
</mask>
<g mask="url(#mask0_2790_668)">
<path d="M85.178 141.051H61.7096V144.167H85.178V141.051Z" fill="#F27221"/>
<path d="M111.457 141.051H87.9883V144.167H111.457V141.051Z" fill="#F27221"/>
<path d="M86.5069 28.8334C101.387 28.837 115.657 34.7509 126.178 45.2742C136.699 55.7978 142.609 70.0689 142.609 84.9493V114.025C142.615 117.571 141.921 121.083 140.568 124.361C139.215 127.639 137.23 130.618 134.725 133.128C132.22 135.638 129.245 137.63 125.97 138.989C122.695 140.349 119.184 141.05 115.638 141.051H57.3761C50.2216 141.051 43.3599 138.21 38.2996 133.153C33.2393 128.095 30.3947 121.235 30.391 114.081V85.0046C30.3837 77.6309 31.8298 70.3279 34.6466 63.5131C37.4635 56.6984 41.5958 50.5055 46.8074 45.2889C52.0188 40.0722 58.2074 35.9338 65.0193 33.1102C71.8312 30.2867 79.1332 28.8334 86.5069 28.8334Z" fill="black"/>
<path d="M142.609 114.205C135.089 114.194 127.882 111.201 122.566 105.883C117.25 100.564 114.261 93.3547 114.254 85.8354H117.382C117.386 92.5262 120.045 98.9416 124.774 103.674C129.504 108.407 135.918 111.068 142.609 111.076V114.205Z" fill="white"/>
<path d="M30.391 114.205V111.076C37.0829 111.068 43.4986 108.407 48.2305 103.675C52.9625 98.9431 55.6238 92.5272 55.6315 85.8354H58.7465C58.7393 93.3547 55.7497 100.564 50.4343 105.883C45.1184 111.201 37.9104 114.194 30.391 114.205Z" fill="white"/>
<path d="M86.5067 99.4452C93.1 99.4711 99.414 102.108 104.067 106.779C108.719 111.45 111.332 117.775 111.332 124.367V138.213H61.6678V124.367C61.6678 117.772 64.282 111.446 68.9381 106.774C73.5937 102.103 79.9116 99.4673 86.5067 99.4452Z" fill="white"/>
<path d="M86.4933 78.5392L99.3693 65.1086H73.6307L86.4933 78.5392Z" fill="#F27221"/>
</g>
</g>
<defs>
<clipPath id="clip0_2790_668">
<path d="M0 86.5C0 38.7274 38.7274 0 86.5 0V0C134.273 0 173 38.7274 173 86.5V86.5C173 134.273 134.273 173 86.5 173V173C38.7274 173 0 134.273 0 86.5V86.5Z" fill="white"/>
</clipPath>
</defs>
</svg>
