<svg width="32" height="32" viewBox="0 0 32 32" fill="none" xmlns="http://www.w3.org/2000/svg">
<g clip-path="url(#clip0_63_21)">
<mask id="mask0_63_21" style="mask-type:luminance" maskUnits="userSpaceOnUse" x="0" y="0" width="32" height="32">
<path d="M0 16C0 7.16344 7.16344 0 16 0C24.8366 0 32 7.16344 32 16C32 24.8366 24.8366 32 16 32C7.16344 32 0 24.8366 0 16Z" fill="white"/>
</mask>
<g mask="url(#mask0_63_21)">
<path d="M0 4C0 1.79086 1.79086 0 4 0H28C30.2091 0 32 1.79086 32 4V28C32 30.2091 30.2091 32 28 32H4C1.79086 32 0 30.2091 0 28V4Z" fill="#3B82F6"/>
<mask id="mask1_63_21" style="mask-type:luminance" maskUnits="userSpaceOnUse" x="6" y="6" width="20" height="20">
<path d="M25.375 6.625H6.625V25.375H25.375V6.625Z" fill="white"/>
</mask>
<g mask="url(#mask1_63_21)">
<path fill-rule="evenodd" clip-rule="evenodd" d="M24.8703 7.16966C23.6075 5.86155 20.2676 6.98766 16.6012 9.71122C14.1806 9.63485 11.7882 10.9198 10.5326 13.2273C9.9508 14.2965 9.68568 15.4515 9.70587 16.5815L9.70637 16.6071C7.01793 20.2282 5.88309 23.5368 7.1318 24.8303C8.80661 26.5652 14.1352 24.0182 19.0336 19.1414C23.9319 14.2645 26.5451 8.90466 24.8703 7.16966ZM8.7098 23.1867C8.14524 22.6018 8.75993 20.9707 10.1721 18.9192C10.6557 20.1412 11.5034 21.2191 12.664 21.9714C10.7477 23.2311 9.24874 23.745 8.7098 23.1867ZM23.1479 8.81191C23.6849 9.36816 23.1551 10.871 21.8868 12.7818C21.3144 11.8487 20.5009 11.0512 19.4761 10.4931C19.2893 10.3914 19.0998 10.3 18.9082 10.2185C20.9602 8.82072 22.5825 8.22616 23.1479 8.81191Z" fill="#EFF6FF"/>
<path d="M22.8421 16.736C22.7733 17.7011 22.4946 18.6694 21.9874 19.5725C20.7646 21.7492 18.5277 22.9886 16.2321 23.0126C17.4252 22.1744 18.6395 21.1796 19.8226 20.0499C20.9591 18.9647 21.9725 17.8449 22.8421 16.736Z" fill="#EFF6FF"/>
</g>
</g>
</g>
<defs>
<clipPath id="clip0_63_21">
<rect width="32" height="32" fill="white"/>
</clipPath>
</defs>
</svg>
